# xmcd
#
# Track frame offsets:
#	150
#	6722
#	24897
#	42338
#	61505
#	68754
#	94214
#	115429
#	132721
#	150731
#	172421
#
# Disc length: 2647 seconds
#
# Revision: 0
# Processed by: cddbd v1.5.2PL0 Copyright (c) Steve Scherf et al.
# Submitted via: dBpowerAMP V4.0
#
DISCID=9a0a550b
DTITLE=Nostradameus - Pathway
DYEAR=2007
DGENRE=Speed Melodic
TTITLE0=Welcome to living
TTITLE1=Wall of anger
TTITLE2=Until the end
TTITLE3=Demaon voices
TTITLE4=MDCC A.D. PtI
TTITLE5=MDCC A.D. PtII
TTITLE6=P.I.R.
TTITLE7=No trace of madness
TTITLE8=Not only women bleed
TTITLE9=Death by my side
TTITLE10=The untouchables
EXTD=
EXTT0=
EXTT1=
EXTT2=
EXTT3=
EXTT4=
EXTT5=
EXTT6=
EXTT7=
EXTT8=
EXTT9=
EXTT10=
PLAYORDER=
